<?xml version="1.0" encoding="utf-8"?>
<!-- Generator: Adobe Illustrator 26.0.0, SVG Export Plug-In . SVG Version: 6.00 Build 0)  -->
<svg version="1.1" id="Capa_1" xmlns="http://www.w3.org/2000/svg" xmlns:xlink="http://www.w3.org/1999/xlink" x="0px" y="0px"
	 viewBox="0 0 822 141.7" style="enable-background:new 0 0 822 141.7;" xml:space="preserve">
<style type="text/css">
	.st0{fill:#FFC000;stroke:#1D1D1B;stroke-miterlimit:10;}
	.st1{fill:#ECEC6E;stroke:#1D1D1B;stroke-miterlimit:10;}
	.st2{fill:#92D050;stroke:#1D1D1B;stroke-miterlimit:10;}
	.st3{fill:#00B050;stroke:#1D1D1B;stroke-miterlimit:10;}
	.st4{fill:#FFFFFF;}
</style>
<rect x="5.1" y="4.9" class="st0" width="208.4" height="133.7"/>
<rect x="217" y="4.9" class="st1" width="198.4" height="133.7"/>
<rect x="418.8" y="4.6" class="st2" width="198.4" height="133.7"/>
<rect x="620.6" y="4.6" class="st3" width="198.4" height="133.7"/>
<g>
	<path class="st4" d="M106.2,99.5c-11.2,0-20.3-9.1-20.3-20.3c0-10.5,16.7-31.9,18.6-34.3c0.4-0.5,1-0.8,1.7-0.8s1.3,0.3,1.7,0.8
		c1.9,2.4,18.6,23.8,18.6,34.3C126.4,90.4,117.3,99.5,106.2,99.5z M106.2,49.8c-5.6,7.5-16,22.6-16,29.4c0,8.8,7.2,16,16,16
		s16-7.2,16-16C122.1,72.4,111.8,57.3,106.2,49.8z"/>
	<path class="st4" d="M106.2,90.9c-1.2,0-2.2-1-2.2-2.2c0-1.2,1-2.2,2.2-2.2c4,0,7.3-3.3,7.3-7.3c0-1.2,1-2.2,2.2-2.2
		c1.2,0,2.2,1,2.2,2.2C117.8,85.6,112.6,90.9,106.2,90.9z"/>
</g>
<g>
	<path class="st4" d="M294.9,100.3c-11.2,0-20.3-9.1-20.3-20.3c0-10.5,16.7-31.9,18.6-34.3c0.4-0.5,1-0.8,1.7-0.8
		c0.7,0,1.3,0.3,1.7,0.8c1.9,2.4,18.6,23.8,18.6,34.3C315.2,91.2,306.1,100.3,294.9,100.3z M294.9,50.7c-5.6,7.5-16,22.6-16,29.4
		c0,8.8,7.2,16,16,16s16-7.2,16-16C310.8,73.2,300.5,58.1,294.9,50.7z"/>
	<path class="st4" d="M294.9,91.7c-1.2,0-2.2-1-2.2-2.2c0-1.2,1-2.2,2.2-2.2c4,0,7.3-3.3,7.3-7.3c0-1.2,1-2.2,2.2-2.2
		c1.2,0,2.2,1,2.2,2.2C306.5,86.5,301.3,91.7,294.9,91.7z"/>
</g>
<g>
	<path class="st4" d="M339.6,100.9c-11.2,0-20.3-9.1-20.3-20.3c0-10.5,16.7-31.9,18.6-34.3c0.4-0.5,1-0.8,1.7-0.8
		c0.7,0,1.3,0.3,1.7,0.8c1.9,2.4,18.6,23.8,18.6,34.3C359.9,91.8,350.8,100.9,339.6,100.9z M339.6,51.2c-5.6,7.5-16,22.6-16,29.4
		c0,8.8,7.2,16,16,16c8.8,0,16-7.2,16-16C355.6,73.8,345.3,58.7,339.6,51.2z"/>
	<path class="st4" d="M339.6,92.2c-1.2,0-2.2-1-2.2-2.2c0-1.2,1-2.2,2.2-2.2c4,0,7.3-3.3,7.3-7.3c0-1.2,1-2.2,2.2-2.2
		c1.2,0,2.2,1,2.2,2.2C351.3,87,346.1,92.2,339.6,92.2z"/>
</g>
<g>
	<path class="st4" d="M471.3,102.2c-11.2,0-20.3-9.1-20.3-20.3c0-10.5,16.7-31.9,18.6-34.3c0.4-0.5,1-0.8,1.7-0.8
		c0.7,0,1.3,0.3,1.7,0.8c1.9,2.4,18.6,23.8,18.6,34.3C491.6,93.1,482.5,102.2,471.3,102.2z M471.3,52.5c-5.6,7.5-16,22.6-16,29.4
		c0,8.8,7.2,16,16,16c8.8,0,16-7.2,16-16C487.3,75,477,59.9,471.3,52.5z"/>
	<path class="st4" d="M471.3,93.5c-1.2,0-2.2-1-2.2-2.2c0-1.2,1-2.2,2.2-2.2c4,0,7.3-3.3,7.3-7.3c0-1.2,1-2.2,2.2-2.2
		c1.2,0,2.2,1,2.2,2.2C483,88.3,477.7,93.5,471.3,93.5z"/>
</g>
<g>
	<path class="st4" d="M518.8,102.2c-11.2,0-20.3-9.1-20.3-20.3c0-10.5,16.7-31.9,18.6-34.3c0.4-0.5,1-0.8,1.7-0.8
		c0.7,0,1.3,0.3,1.7,0.8c1.9,2.4,18.6,23.8,18.6,34.3C539.1,93.1,530,102.2,518.8,102.2z M518.8,52.5c-5.6,7.5-16,22.6-16,29.4
		c0,8.8,7.2,16,16,16c8.8,0,16-7.2,16-16C534.8,75,524.5,59.9,518.8,52.5z"/>
	<path class="st4" d="M518.8,93.5c-1.2,0-2.2-1-2.2-2.2c0-1.2,1-2.2,2.2-2.2c4,0,7.3-3.3,7.3-7.3c0-1.2,1-2.2,2.2-2.2
		c1.2,0,2.2,1,2.2,2.2C530.5,88.3,525.2,93.5,518.8,93.5z"/>
</g>
<g>
	<path class="st4" d="M564.7,101.3c-11.2,0-20.3-9.1-20.3-20.3c0-10.5,16.7-31.9,18.6-34.3c0.4-0.5,1-0.8,1.7-0.8s1.3,0.3,1.7,0.8
		C568.3,49.1,585,70.6,585,81C585,92.2,575.9,101.3,564.7,101.3z M564.7,51.6c-5.6,7.5-16,22.6-16,29.4c0,8.8,7.2,16,16,16
		s16-7.2,16-16C580.7,74.2,570.4,59.1,564.7,51.6z"/>
	<path class="st4" d="M564.7,92.7c-1.2,0-2.2-1-2.2-2.2c0-1.2,1-2.2,2.2-2.2c4,0,7.3-3.3,7.3-7.3c0-1.2,1-2.2,2.2-2.2
		c1.2,0,2.2,1,2.2,2.2C576.4,87.4,571.2,92.7,564.7,92.7z"/>
</g>
<g>
	<path class="st4" d="M650.1,102.6c-11.2,0-20.3-9.1-20.3-20.3c0-10.5,16.7-31.9,18.6-34.3c0.4-0.5,1-0.8,1.7-0.8
		c0.7,0,1.3,0.3,1.7,0.8c1.9,2.4,18.6,23.8,18.6,34.3C670.4,93.5,661.3,102.6,650.1,102.6z M650.1,52.9c-5.6,7.5-16,22.6-16,29.4
		c0,8.8,7.2,16,16,16s16-7.2,16-16C666.1,75.5,655.7,60.4,650.1,52.9z"/>
	<path class="st4" d="M650.1,94c-1.2,0-2.2-1-2.2-2.2c0-1.2,1-2.2,2.2-2.2c4,0,7.3-3.3,7.3-7.3c0-1.2,1-2.2,2.2-2.2
		c1.2,0,2.2,1,2.2,2.2C661.7,88.8,656.5,94,650.1,94z"/>
</g>
<g>
	<path class="st4" d="M697.6,102.6c-11.2,0-20.3-9.1-20.3-20.3c0-10.5,16.7-31.9,18.6-34.3c0.4-0.5,1-0.8,1.7-0.8
		c0.7,0,1.3,0.3,1.7,0.8c1.9,2.4,18.6,23.8,18.6,34.3C717.9,93.5,708.8,102.6,697.6,102.6z M697.6,52.9c-5.6,7.5-16,22.6-16,29.4
		c0,8.8,7.2,16,16,16c8.8,0,16-7.2,16-16C713.6,75.5,703.2,60.4,697.6,52.9z"/>
	<path class="st4" d="M697.6,94c-1.2,0-2.2-1-2.2-2.2c0-1.2,1-2.2,2.2-2.2c4,0,7.3-3.3,7.3-7.3c0-1.2,1-2.2,2.2-2.2
		c1.2,0,2.2,1,2.2,2.2C709.2,88.8,704,94,697.6,94z"/>
</g>
<g>
	<path class="st4" d="M743.5,101.8c-11.2,0-20.3-9.1-20.3-20.3c0-10.5,16.7-31.9,18.6-34.3c0.4-0.5,1-0.8,1.7-0.8s1.3,0.3,1.7,0.8
		c1.9,2.4,18.6,23.8,18.6,34.3C763.8,92.7,754.7,101.8,743.5,101.8z M743.5,52.1c-5.6,7.5-16,22.6-16,29.4c0,8.8,7.2,16,16,16
		s16-7.2,16-16C759.5,74.7,749.1,59.6,743.5,52.1z"/>
	<path class="st4" d="M743.5,93.1c-1.2,0-2.2-1-2.2-2.2c0-1.2,1-2.2,2.2-2.2c4,0,7.3-3.3,7.3-7.3c0-1.2,1-2.2,2.2-2.2
		c1.2,0,2.2,1,2.2,2.2C755.1,87.9,749.9,93.1,743.5,93.1z"/>
</g>
<g>
	<path class="st4" d="M791.7,101.4c-11.2,0-20.3-9.1-20.3-20.3c0-10.5,16.7-31.9,18.6-34.3c0.4-0.5,1-0.8,1.7-0.8s1.3,0.3,1.7,0.8
		c1.9,2.4,18.6,23.8,18.6,34.3C812,92.3,802.9,101.4,791.7,101.4z M791.7,51.7c-5.6,7.5-16,22.6-16,29.4c0,8.8,7.2,16,16,16
		s16-7.2,16-16C807.6,74.2,797.3,59.1,791.7,51.7z"/>
	<path class="st4" d="M791.7,92.7c-1.2,0-2.2-1-2.2-2.2c0-1.2,1-2.2,2.2-2.2c4,0,7.3-3.3,7.3-7.3c0-1.2,1-2.2,2.2-2.2
		c1.2,0,2.2,1,2.2,2.2C803.3,87.5,798.1,92.7,791.7,92.7z"/>
</g>
</svg>
